<svg id="Layer_1" data-name="Layer 1" xmlns="http://www.w3.org/2000/svg" xmlns:xlink="http://www.w3.org/1999/xlink" viewBox="0 0 3437.31 1414.64"><defs><style>.cls-1{fill:#da8c8d;}.cls-2,.cls-7{fill:#202021;}.cls-3{fill:#f9dd89;}.cls-4{fill:#4361ee;}.cls-5{fill:#b6bece;}.cls-6{fill:#eaedf7;}.cls-7{stroke:#4361ee;stroke-miterlimit:10;}.cls-8{fill:#5c6aff;}.cls-9{fill:#cad2ea;}.cls-10{clip-path:url(#clip-path);}.cls-11{fill:#c17276;}.cls-12{fill:#2747a0;}.cls-13{clip-path:url(#clip-path-2);}.cls-14{clip-path:url(#clip-path-3);}.cls-15{fill:#f4c54e;}.cls-16{clip-path:url(#clip-path-4);}.cls-17{fill:#fff;}.cls-18{clip-path:url(#clip-path-5);}.cls-19{clip-path:url(#clip-path-6);}.cls-20{clip-path:url(#clip-path-7);}.cls-21{clip-path:url(#clip-path-8);}.cls-22{clip-path:url(#clip-path-9);}.cls-23{clip-path:url(#clip-path-10);}.cls-24{clip-path:url(#clip-path-11);}.cls-25{clip-path:url(#clip-path-12);}.cls-26{clip-path:url(#clip-path-13);}.cls-27{fill:#434444;}.cls-28{clip-path:url(#clip-path-14);}.cls-29{clip-path:url(#clip-path-15);}.cls-30{clip-path:url(#clip-path-16);}.cls-31{clip-path:url(#clip-path-17);}.cls-32{clip-path:url(#clip-path-18);}</style><clipPath id="clip-path"><path class="cls-1" d="M752.39,425.05l-38.07-13.93L580.15,315.88l-11,17.56s76.1,91.83,115.71,117.17c0,0,24.74,23.06,53.78,26S752.39,425.05,752.39,425.05Z"/></clipPath><clipPath id="clip-path-2"><path class="cls-1" d="M808.59,872.72C810,932.58,840,1168.52,840,1168.52l10.26,1.53,8.59-7.1,35.23-279.61Z"/></clipPath><clipPath id="clip-path-3"><path class="cls-4" d="M821.11,672.05,797.4,891.24s63.84,30.3,99.51,16.93c0,0,93.1-3.74,101.5-15,0,0-5-180.59-30.33-227.3C968.08,665.83,848.4,678.76,821.11,672.05Z"/></clipPath><clipPath id="clip-path-4"><path class="cls-1" d="M864.29,348.51s-28.18,58.91,5,62.36,59.27-30.14,51.91-55.22S880.18,309.1,864.29,348.51Z"/></clipPath><clipPath id="clip-path-5"><path class="cls-3" d="M875.53,425.05,734.1,413.45l-11.82,66.91S809.42,526.05,826,518.9,875.53,425.05,875.53,425.05Z"/></clipPath><clipPath id="clip-path-6"><path class="cls-5" d="M864.78,1023.75S911.13,875.18,941.22,854s177.15-38.61,196.76-25.63S1252.52,973.14,1219.4,983,863.74,1084.57,864.78,1023.75Z"/></clipPath><clipPath id="clip-path-7"><path class="cls-1" d="M1035.65,785.4s-4.41-131.65-7.17-143.69c-6.43-28-14.69-59.14-14.69-59.14l-46.53,12.92s13.25,45.09,16.91,55.33c3.15,8.81,21,101.91,25.9,127.88-2.29,6.12-6.75,19.19-5.27,24.77,2,7.4,20.14,10.76,20.14,10.76s11.29,0,14.49-3.92S1035.65,785.4,1035.65,785.4Z"/></clipPath><clipPath id="clip-path-8"><path class="cls-1" d="M1684.34,898.47c13,58.47,85,268.68,85,268.68l10.36-.49,7-8.63L1767.2,876.89Z"/></clipPath><clipPath id="clip-path-9"><path class="cls-1" d="M1584,888.48c1.41,59.87,31.39,280,31.39,280l10.26,1.53,8.59-7.1,35.23-279.61Z"/></clipPath><clipPath id="clip-path-10"><path class="cls-1" d="M1618.23,353.68s-18.25,62.69,15,60.72,53.6-39.36,42.27-62.91S1627.51,312.2,1618.23,353.68Z"/></clipPath><clipPath id="clip-path-11"><path class="cls-1" d="M1787,583.09s10.67,65.87,1.15,75.36c-21.18,21.15-171.69-9.87-171.69-9.87l-3.08-20.52s107.15-11.9,123.16-8.1l-4.62-21.37S1769.25,588,1787,583.09Z"/></clipPath><clipPath id="clip-path-12"><rect class="cls-2" x="1848.72" y="777.74" width="263.32" height="378.66" rx="22.41"/></clipPath><clipPath id="clip-path-13"><path class="cls-2" d="M2921.4,414.37c1.35.29,2.68.61,4,.95,39.42,10.23,64.3,47.46,69.59,86.42,3.72,27.43,2.16,55.86,2.58,83.49.46,29.72.87,59.44.37,89.16-.37,21.86-1,45.63-12.26,65.07-12,20.73-36.77,29.39-59.52,32.2-13.81,1.7-27.73,1.31-41.57.37-11-.74-26.78.45-36.16-6.28-5.36-3.85-8.07-10.33-10.21-16.57-11.88-34.68-13.73-71.9-14.9-108.54q-2-61.93-1.76-123.9c.09-25.66,3.23-49.43,14.55-72.68C2850.84,413.79,2891.21,407.88,2921.4,414.37Z"/></clipPath><clipPath id="clip-path-14"><path class="cls-1" d="M2823.56,898.47c13,58.47,85,268.68,85,268.68l10.36-.49L2926,1158l-19.55-281.14Z"/></clipPath><clipPath id="clip-path-15"><path class="cls-1" d="M2723.22,888.48c1.41,59.87,31.39,280,31.39,280l10.25,1.53,8.6-7.1,35.23-279.61Z"/></clipPath><clipPath id="clip-path-16"><path class="cls-3" d="M2721.13,716.1a15.75,15.75,0,0,1-7.42-12.56c-1.94-34.58-8.8-203.91,39.16-254.74,38.75-41.07,74.07-21.7,74.07-21.7s99.41,40,64.16,159.29c-7.73,26.16,15.5,83.22,8.84,112.67C2891.71,735.45,2757.15,738.2,2721.13,716.1Z"/></clipPath><clipPath id="clip-path-17"><path class="cls-1" d="M2757.45,353.68s-18.25,62.69,15.05,60.72,53.59-39.36,42.26-62.91S2766.73,312.2,2757.45,353.68Z"/></clipPath><clipPath id="clip-path-18"><path class="cls-1" d="M2696.76,558s-54.58,38.39-67.28,34c-28.27-9.8-66.16-158.74-66.16-158.74l17.1-11.73s57.54,91.16,61.13,107.23l17.2-13.5S2684.58,544.22,2696.76,558Z"/></clipPath></defs><rect class="cls-6" width="3437.31" height="1414.64"/><rect class="cls-7" x="495.03" y="265.98" width="21.84" height="931.02"/><polygon class="cls-8" points="639.64 393.82 368.75 380.86 322.56 342.38 372.21 308.48 643.11 321.44 639.64 393.82"/><polygon class="cls-4" points="644.26 627.61 374.26 653.17 323.08 621.62 367.43 581.03 637.43 555.47 644.26 627.61"/><polygon class="cls-4" points="354.86 451.7 625.16 429.56 675.93 461.76 631.08 501.78 360.77 523.92 354.86 451.7"/><ellipse class="cls-9" cx="888.46" cy="1197" rx="225.7" ry="25.6"/><path class="cls-1" d="M580.15,315.88s-13-9.3-22.95-8.3-25.38,8.3-25.38,8.3,32,19.85,41.28,19.18S580.15,315.88,580.15,315.88Z"/><path class="cls-1" d="M752.39,425.05l-38.07-13.93L580.15,315.88l-11,17.56s76.1,91.83,115.71,117.17c0,0,24.74,23.06,53.78,26S752.39,425.05,752.39,425.05Z"/><g class="cls-10"><path class="cls-11" d="M729.48,413.45s-19.56,33.69-39.56,45,58.18,24.35,66.47,20.43-4.77-64-4.77-64Z"/></g><path class="cls-1" d="M908.93,898.47c13,58.47,85,268.68,85,268.68l10.36-.49,7.05-8.63L991.79,876.89Z"/><path class="cls-12" d="M1012.61,1155.08l-24.12,5.32,3.82,11.28s-26,8.37-35.89,25.32l61.6-12.11Z"/><path class="cls-1" d="M808.59,872.72C810,932.58,840,1168.52,840,1168.52l10.26,1.53,8.59-7.1,35.23-279.61Z"/><g class="cls-13"><path class="cls-11" d="M884.14,931.24c4.66-.69,9.47-1.67,13.24-4.5,4.31-3.25,6.63-8.47,8.25-13.62,2.28-7.3,3.4-15.54-.08-22.35-3.67-7.2-11.57-11.09-19.16-13.88a149.63,149.63,0,0,0-63-8.66c-6.05.47-12.25,1.38-17.51,4.4-7.74,4.45-12.48,13.2-13.18,22.09-.61,7.74,1.68,15,5.19,21.86,1,1.87,1.78,3.91,3.56,5.16,2.56,1.79,6,2.55,9,3.49A164.06,164.06,0,0,0,857.3,933,160.75,160.75,0,0,0,884.14,931.24Z"/></g><path class="cls-12" d="M860.64,1160.3l-24.69.55,1.57,11.81s-27.11,3.18-40.12,17.89l62.78,0Z"/><path class="cls-4" d="M821.11,672.05,797.4,891.24s63.84,30.3,99.51,16.93c0,0,93.1-3.74,101.5-15,0,0-5-180.59-30.33-227.3C968.08,665.83,848.4,678.76,821.11,672.05Z"/><g class="cls-14"><path class="cls-4" d="M931.76,839.94a110.51,110.51,0,0,1,67.79-32.7,6,6,0,0,1,7.58,4.52,121.51,121.51,0,0,1,4.39,82.83c-3.45,11.2-9.3,22.7-19.86,27.81-6,2.9-12.86,3.4-19.52,3.45a167.16,167.16,0,0,1-63.62-12.15c-3.32-1.34-6.91-2.49-7.16-6.56-.26-4.3.91-9,1.79-13.17a111.54,111.54,0,0,1,9.68-27.45,109.81,109.81,0,0,1,16.49-24C930.12,841.66,930.93,840.8,931.76,839.94Z"/></g><path class="cls-12" d="M896.91,908.17s-2-131.15-3.29-156.42c0,0-32.51,138.76-21.77,159.76C871.85,911.51,891.37,912.13,896.91,908.17Z"/><path class="cls-3" d="M806.51,716.1a15.73,15.73,0,0,1-7.43-12.56c-1.94-34.58-8.8-203.91,39.16-254.74,38.75-41.07,74.07-21.7,74.07-21.7s99.41,40,64.16,159.29c-7.73,26.16,15.5,83.22,8.84,112.67C977.08,735.45,842.52,738.2,806.51,716.1Z"/><path class="cls-15" d="M959.76,388.72C955,394.53,923,379,893.64,355s-49.24-48.23-44.48-54,32.38,9,61.71,33S964.52,382.92,959.76,388.72Z"/><path class="cls-1" d="M864.29,348.51s-28.18,58.91,5,62.36,59.27-30.14,51.91-55.22S880.18,309.1,864.29,348.51Z"/><g class="cls-16"><path class="cls-11" d="M912.37,357.9c4-.87,8.48-2.32,10.13-6.06,1.9-4.31-1-9.22-4.44-12.44-8.47-8-20.32-11.43-31.9-12.52-8.55-.79-17.52-.38-25.54,2.92-7.41,3.05-14.87,9.43-16.56,17.65-1.28,6.25,4.08,9.39,9.31,10.88,7.9,2.26,16.59,2.68,24.75,2.86a147.69,147.69,0,0,0,30.55-2.54C909.91,358.42,911.14,358.16,912.37,357.9Z"/><path class="cls-17" d="M856,388.27s18-2.33,18.64,0-10,5.94-14.4,5.1A5,5,0,0,1,856,388.27Z"/></g><path class="cls-1" d="M922.27,368.88s-9.75,31.05-4.79,63.61c0,0-21.78,12-37.77,9.12s10.73-58.13,10.73-58.13Z"/><path class="cls-11" d="M879.29,410.81s2.15,1.19,16-6.55c0,0-.67,14.11-19.39,18.38C875.92,422.64,878,414.36,879.29,410.81Z"/><path class="cls-4" d="M906.84,349.61a66.08,66.08,0,0,0,2.34,25.63c.19-2.2,1-4.75,3.07-5.44a4.21,4.21,0,0,1,4.49,1.76,9.49,9.49,0,0,1,1.47,4.87,14.24,14.24,0,0,1-.91,6.92,7.35,7.35,0,0,1-5.17,4.38c1.4,6,2.66,12.18,4.06,18.19a68.19,68.19,0,0,0,24.7-37.17,44.28,44.28,0,0,0,1.55-11.83,33,33,0,0,0-6.11-18.33,18.69,18.69,0,0,0-5.53-5.39c-5.12-3-12-2.1-16.71,1.54S907.47,343.7,906.84,349.61Z"/><path class="cls-4" d="M878.48,310.46a157.11,157.11,0,0,0,25.89,1.14c.48,0,1-.05,1.42-.05,23.22-.24,24,34.69.85,36.14-12.4.78-25.71,1.28-32.1.43,0,0-28.87,2.41-39.29-8s11.62-34.54,43.23-29.67"/><path class="cls-17" d="M879.85,441.45l-15.07,8s2.41-16,5.67-23l5.08-1.47S874.11,437.16,879.85,441.45Z"/><path class="cls-17" d="M879.85,441.45l10.27,23.17s30.2-16.18,34.81-29.53l-7.09-4.85S895,442.14,879.85,441.45Z"/><path class="cls-3" d="M873.36,307.66s56.12,38,73,60.66c0,0,14.72-38.95,4.53-49.69s-18.26-12-18.26-12a29.28,29.28,0,0,0-14.44-13.3C902.53,286.9,873.36,307.66,873.36,307.66Z"/><path class="cls-15" d="M849.16,300.94s76.65,80.64,106.2,87S884.2,291.28,849.16,300.94Z"/><path class="cls-3" d="M929.21,436.47s78.46,48.3,99.27,141.93c0,0-50.49,13.94-80.93,22.71C922.83,608.24,929.21,436.47,929.21,436.47Z"/><path class="cls-15" d="M947.55,601.11s-6-44.14-11.51-53.77,3.26,62.74,5.76,76.48,44.73,65.63,44.73,65.63-7-82.86-5.83-91.86C981.78,589.53,947.55,601.11,947.55,601.11Z"/><path class="cls-3" d="M875.53,425.05,734.1,413.45l-11.82,66.91S809.42,526.05,826,518.9,875.53,425.05,875.53,425.05Z"/><g class="cls-18"><path class="cls-15" d="M808.28,519.66s5.2-35.35,17.58-53.11c0,0-53.91,23.13-54.51,37.26s36.93,15.85,36.93,15.85"/></g><path class="cls-5" d="M864.78,1023.75S911.13,875.18,941.22,854s177.15-38.61,196.76-25.63S1252.52,973.14,1219.4,983,863.74,1084.57,864.78,1023.75Z"/><g class="cls-19"><path class="cls-7" d="M862.27,1005.87c-.39.65,76.81,12,149.42-1.25s216.73-73.24,236-55.85,14.33,53.75-37.2,59.82-266,61.52-312.57,52.44S862.27,1005.87,862.27,1005.87Z"/></g><path class="cls-7" d="M982.83,869.24a5.06,5.06,0,0,1-.55,0,5.43,5.43,0,0,1-4.87-6,171.87,171.87,0,0,1,5.4-27.41c5.8-20,14.21-31.33,25-33.75S1037,798,1053.35,798h.13c28.38,0,34.73,4.46,37.09,8.33,5.4,8.85,10.3,38.48,10.84,41.83a5.43,5.43,0,1,1-10.73,1.73c-1.89-11.66-6-32-9.24-37.66-1.51-1.07-9.35-3.51-29.85-3.36-15.07.11-31.71,1.64-41.4,3.81-12.52,2.8-20.12,33.16-22,51.63A5.44,5.44,0,0,1,982.83,869.24Z"/><path class="cls-1" d="M1035.65,785.4s-4.41-131.65-7.17-143.69c-6.43-28-14.69-59.14-14.69-59.14l-46.53,12.92s13.25,45.09,16.91,55.33c3.15,8.81,21,101.91,25.9,127.88-2.29,6.12-6.75,19.19-5.27,24.77,2,7.4,20.14,10.76,20.14,10.76s11.29,0,14.49-3.92S1035.65,785.4,1035.65,785.4Z"/><g class="cls-20"><path class="cls-11" d="M1018.39,591.5s-33.33,30.12-49.12,31.29-10.52-34.21-10.52-34.21l57.88-16.08S1023.68,586.92,1018.39,591.5Z"/></g><ellipse class="cls-9" cx="1673.32" cy="1197" rx="225.7" ry="25.6"/><path class="cls-1" d="M1684.34,898.47c13,58.47,85,268.68,85,268.68l10.36-.49,7-8.63L1767.2,876.89Z"/><g class="cls-21"><path class="cls-11" d="M1689.33,918.21s58.42-.71,84.49-17.19l-6.62-24.13-89.86,6.45s-1.26,30.95,12,34.87"/></g><path class="cls-12" d="M1788,1155.08l-24.13,5.32,3.83,11.28s-26,8.37-35.89,25.32l61.6-12.11Z"/><path class="cls-1" d="M1584,888.48c1.41,59.87,31.39,280,31.39,280l10.26,1.53,8.59-7.1,35.23-279.61Z"/><g class="cls-22"><path class="cls-11" d="M1584,914.42s49,21.55,83.48,6.77h0l2-37.85-92.6-6.45,7.13,37.53"/></g><path class="cls-12" d="M1636.05,1160.3l-24.7.55,1.57,11.81s-27.1,3.18-40.11,17.89l62.78,0Z"/><path class="cls-4" d="M1596.52,672.05l-23.71,219.19s63.84,30.3,99.51,16.93c0,0,93.1-3.74,101.5-15,0,0-5-180.59-30.33-227.3C1743.49,665.83,1623.81,678.76,1596.52,672.05Z"/><path class="cls-12" d="M1672.32,908.17s-2-131.15-3.29-156.42c0,0-32.51,138.76-21.77,159.76C1647.26,911.51,1666.78,912.13,1672.32,908.17Z"/><path class="cls-3" d="M1581.91,716.1a15.75,15.75,0,0,1-7.42-12.56c-1.94-34.58-8.8-203.91,39.16-254.74,38.75-41.07,74.07-21.7,74.07-21.7s99.41,40,64.16,159.29c-7.73,26.16,15.5,83.22,8.84,112.67C1752.49,735.45,1617.93,738.2,1581.91,716.1Z"/><path class="cls-3" d="M1627.43,436.47s-71.75,51.92-82.38,129.52c0,0,44.67,19.13,70.7,18.07S1627.43,436.47,1627.43,436.47Z"/><path class="cls-17" d="M1369.86,491.86s99.34,48.47,223.44,28.42l22.93,174s-168,27.21-208.44-42.37Z"/><path class="cls-15" d="M1719,377.86c-3.76,6.5-37.89-3.62-70.73-22.58s-56.41-39.59-52.66-46.09,33.42,3.6,66.25,22.56S1722.72,371.37,1719,377.86Z"/><path class="cls-1" d="M1618.23,353.68s-18.25,62.69,15,60.72,53.6-39.36,42.27-62.91S1627.51,312.2,1618.23,353.68Z"/><g class="cls-23"><path class="cls-11" d="M1667.2,355.14c3.81-1.51,8-3.67,9-7.63,1.17-4.55-2.51-8.92-6.41-11.55-9.65-6.51-21.9-8-33.51-7.17-8.56.59-17.34,2.46-24.73,7-6.81,4.21-13.13,11.72-13.47,20.1-.25,6.37,5.55,8.6,11,9.23,8.16.94,16.8-.05,24.88-1.2a147.89,147.89,0,0,0,29.74-7.46C1664.85,356.05,1666,355.6,1667.2,355.14Z"/><path class="cls-17" d="M1631.26,390.87c2-.19,4.42.52,4.85,2.46.35,1.57-.91,3.12-2.4,3.72a12.52,12.52,0,0,1-4.77.49,7.77,7.77,0,0,0-4.62,1,12.47,12.47,0,0,0-1.67,1.66,4.35,4.35,0,0,1-1.92,1.31,1.9,1.9,0,0,1-2.09-.68c-.64-1,.42-1.57,1-2.19.8-.86,1.43-1.87,2.25-2.73a17.41,17.41,0,0,1,5.6-4.09A12.29,12.29,0,0,1,1631.26,390.87Z"/></g><path class="cls-1" d="M1678.75,364.36s-4.59,32.23,5.59,63.55c0,0-19.54,15.41-35.79,15.13s1.16-59.1,1.16-59.1Z"/><path class="cls-11" d="M1643.14,412.72s2.32.82,14.75-9.07c0,0,1.62,14-16.15,21.29C1641.74,424.94,1642.48,416.42,1643.14,412.72Z"/><path class="cls-4" d="M1660.4,347.85a65.89,65.89,0,0,0,6.47,24.92c-.17-2.21.18-4.85,2.14-5.87a4.19,4.19,0,0,1,4.71,1,9.56,9.56,0,0,1,2.25,4.57,14.2,14.2,0,0,1,.22,7,7.36,7.36,0,0,1-4.39,5.17c2.35,5.7,4.6,11.58,7,17.28a68.23,68.23,0,0,0,18.34-40.68,44.12,44.12,0,0,0-.39-11.93,32.9,32.9,0,0,0-9-17.09,18.71,18.71,0,0,0-6.34-4.42c-5.53-2.15-12.18-.13-16.23,4.22S1660.06,341.92,1660.4,347.85Z"/><path class="cls-8" d="M1626.06,313.83a157.44,157.44,0,0,0,25.73-3.08c.47-.11.93-.2,1.39-.28,22.88-4,29.35,30.33,6.71,35.53-12.11,2.77-25.16,5.43-31.6,5.62,0,0-28.1,7.07-40.08-1.51s5.87-36,37.85-36.28"/><path class="cls-17" d="M1648.66,442.86l-13.57,10.37s-.21-16.21,1.88-23.58l4.77-2.28S1642.31,439.55,1648.66,442.86Z"/><path class="cls-17" d="M1648.66,442.86l13.9,21.19s27.17-20.86,29.55-34.78l-7.77-3.63S1663.75,441.08,1648.66,442.86Z"/><path class="cls-3" d="M1620.55,311.89s61.55,28.41,81.84,48c0,0,8.2-40.81-3.59-49.76s-20-8.88-20-8.88a29.25,29.25,0,0,0-16.4-10.78C1646,286.67,1620.55,311.89,1620.55,311.89Z"/><path class="cls-15" d="M1595.58,309.19s88.72,67.13,118.92,68.65S1628.59,294,1595.58,309.19Z"/><path class="cls-1" d="M1613.35,628.06s-32-7.92-34.89-7.1.41,20.06,11,23.74,36,5.66,36,5.66S1617.92,629.17,1613.35,628.06Z"/><path class="cls-1" d="M1617.37,627.63c-.7.07-15.26-11.24-15.26-11.24s-.17,3.92.92,5.62,8,9.23,8,9.23Z"/><path class="cls-1" d="M1385.27,561.66s17,20.12,17,25.12-8.52,8.9-8.52,8.9S1385.21,576.49,1385.27,561.66Z"/><path class="cls-3" d="M1704.62,436.47s78.46,48.3,99.27,141.93c0,0-50.49,13.94-80.93,22.71C1698.24,608.24,1704.62,436.47,1704.62,436.47Z"/><path class="cls-15" d="M1723,601.11s-6-44.14-11.51-53.77,3.26,62.74,5.75,76.48,44.74,65.63,44.74,65.63-12.26-80.37-17.51-87.78S1723,601.11,1723,601.11Z"/><path class="cls-1" d="M1787,583.09s10.67,65.87,1.15,75.36c-21.18,21.15-171.69-9.87-171.69-9.87l-3.08-20.52s107.15-11.9,123.16-8.1l-4.62-21.37S1769.25,588,1787,583.09Z"/><g class="cls-24"><path class="cls-11" d="M1793.7,592.06c3-2.2,6.19-5.52,5.08-9-.74-2.37-3.18-3.74-5.48-4.66-8.63-3.46-18.12-4-27.41-4.05-11.8,0-24.75,1.3-33.07,9.67-6.23,6.27-12.6,25.91.15,29,5.75,1.38,12.39-.31,18-1.55a114.83,114.83,0,0,0,21.07-6.88A112.64,112.64,0,0,0,1793.7,592.06Z"/></g><circle class="cls-7" cx="1916.11" cy="1173.05" r="22.64" transform="translate(-303.05 822.56) rotate(-22.5)"/><circle class="cls-7" cx="2048.71" cy="1173.05" r="22.64" transform="translate(-292.96 873.3) rotate(-22.5)"/><circle class="cls-6" cx="1916.75" cy="1173.7" r="8.11" transform="translate(-268.53 1699.12) rotate(-45)"/><circle class="cls-6" cx="2048.71" cy="1173.05" r="8.11" transform="translate(562.65 3007.4) rotate(-80.78)"/><rect class="cls-2" x="1848.72" y="777.74" width="263.32" height="378.66" rx="22.41"/><g class="cls-25"><rect class="cls-5" x="1887.96" y="777.74" width="263.32" height="378.66" rx="22.41"/></g><path class="cls-2" d="M1910.94,844.06c15.08-.75,30.15-1.14,45.22-1.41,7.54-.16,15.08-.2,22.61-.3l22.61-.1,22.61.1c7.54.1,15.08.13,22.61.3,15.08.26,30.15.66,45.22,1.41-15.07.76-30.14,1.15-45.22,1.42-7.53.16-15.07.2-22.61.3l-22.61.09-22.61-.1c-7.53-.1-15.07-.13-22.61-.3C1941.09,845.2,1926,844.81,1910.94,844.06Z"/><path class="cls-2" d="M1910.94,908.8c15.08-.75,30.15-1.14,45.22-1.41,7.54-.17,15.08-.2,22.61-.3l22.61-.1,22.61.09c7.54.1,15.08.14,22.61.3,15.08.27,30.15.66,45.22,1.42-15.07.75-30.14,1.15-45.22,1.41-7.53.17-15.07.2-22.61.3l-22.61.1-22.61-.1c-7.53-.1-15.07-.14-22.61-.3C1941.09,909.94,1926,909.55,1910.94,908.8Z"/><path class="cls-2" d="M1910.94,973.53c15.08-.75,30.15-1.14,45.22-1.4,7.54-.17,15.08-.21,22.61-.31l22.61-.1,22.61.1c7.54.1,15.08.13,22.61.3,15.08.27,30.15.66,45.22,1.41-15.07.76-30.14,1.15-45.22,1.42-7.53.17-15.07.2-22.61.3l-22.61.09-22.61-.1c-7.53-.09-15.07-.13-22.61-.3C1941.09,974.68,1926,974.28,1910.94,973.53Z"/><path class="cls-2" d="M1910.94,1038.27c15.08-.75,30.15-1.14,45.22-1.41,7.54-.16,15.08-.2,22.61-.3l22.61-.1,22.61.1c7.54.1,15.08.13,22.61.3,15.08.26,30.15.66,45.22,1.41-15.07.75-30.14,1.15-45.22,1.41-7.53.17-15.07.2-22.61.31l-22.61.09-22.61-.1c-7.53-.1-15.07-.13-22.61-.3C1941.09,1039.41,1926,1039,1910.94,1038.27Z"/><path class="cls-2" d="M1910.94,1103c15.08-.75,30.15-1.14,45.22-1.41,7.54-.17,15.08-.2,22.61-.3l22.61-.1,22.61.09c7.54.1,15.08.14,22.61.3,15.08.27,30.15.66,45.22,1.42-15.07.75-30.14,1.15-45.22,1.41-7.53.17-15.07.2-22.61.3l-22.61.1-22.61-.1c-7.53-.1-15.07-.14-22.61-.3C1941.09,1104.15,1926,1103.76,1910.94,1103Z"/><path class="cls-2" d="M2043.23,779.55H1923.05V559.85h120.18Zm-116.55-3.62h112.93V563.47H1926.68Z"/><rect class="cls-2" x="1953.54" y="554.01" width="59.19" height="15.3"/><ellipse class="cls-9" cx="2831.33" cy="1197" rx="225.7" ry="25.6"/><path class="cls-17" d="M2707.33,531c-63.9-168.52-303.47-168.52-367.37,0-15.53,41-23.68,90.34-18.58,149.45,22,254.77,202.27,532.74,202.27,532.74s180.28-278,202.26-532.74C2731,621.38,2722.86,572,2707.33,531Z"/><circle class="cls-4" cx="2523.65" cy="609.84" r="80.56"/><path class="cls-2" d="M2921.4,414.37c1.35.29,2.68.61,4,.95,39.42,10.23,64.3,47.46,69.59,86.42,3.72,27.43,2.16,55.86,2.58,83.49.46,29.72.87,59.44.37,89.16-.37,21.86-1,45.63-12.26,65.07-12,20.73-36.77,29.39-59.52,32.2-13.81,1.7-27.73,1.31-41.57.37-11-.74-26.78.45-36.16-6.28-5.36-3.85-8.07-10.33-10.21-16.57-11.88-34.68-13.73-71.9-14.9-108.54q-2-61.93-1.76-123.9c.09-25.66,3.23-49.43,14.55-72.68C2850.84,413.79,2891.21,407.88,2921.4,414.37Z"/><g class="cls-26"><path class="cls-27" d="M2947.84,515.15c10.58,13.57,22.79,26.65,38.63,33.38s36.05,5.64,48.15-6.6c5.73-5.81,9.17-13.52,11.43-21.37,11.18-38.8-6.15-83.12-38.75-106.94A111.49,111.49,0,0,0,2965,395a127.43,127.43,0,0,0-69.2,4.63c-1.15.41-3.42.83-4,2.09s.67,4,1.06,5.3q1.76,6.16,3.75,12.25a318.34,318.34,0,0,0,47.53,91.16Q2946,512.78,2947.84,515.15Z"/></g><path class="cls-1" d="M2823.56,898.47c13,58.47,85,268.68,85,268.68l10.36-.49L2926,1158l-19.55-281.14Z"/><g class="cls-28"><path class="cls-11" d="M2823.56,921.5s58.42,0,89.48-17.5l-6.62-27.11-91.19,4.31Z"/></g><path class="cls-12" d="M2927.24,1155.08l-24.13,5.32,3.83,11.28s-26,8.37-35.89,25.32l61.59-12.11Z"/><path class="cls-1" d="M2723.22,888.48c1.41,59.87,31.39,280,31.39,280l10.25,1.53,8.6-7.1,35.23-279.61Z"/><g class="cls-29"><path class="cls-11" d="M2723.22,924s72.18,7.41,88.31-.8l10-36.84-109.5-3L2723.22,924"/></g><path class="cls-12" d="M2775.27,1160.3l-24.7.55,1.57,11.81s-27.11,3.18-40.11,17.89l62.78,0Z"/><path class="cls-4" d="M2735.73,672.05,2712,891.24s63.83,30.3,99.5,16.93c0,0,93.11-3.74,101.51-15,0,0-5-180.59-30.34-227.3C2882.7,665.83,2763,678.76,2735.73,672.05Z"/><path class="cls-12" d="M2811.53,908.17s-2-131.15-3.28-156.42c0,0-32.52,138.76-21.77,159.76C2786.48,911.51,2806,912.13,2811.53,908.17Z"/><path class="cls-3" d="M2721.13,716.1a15.75,15.75,0,0,1-7.42-12.56c-1.94-34.58-8.8-203.91,39.16-254.74,38.75-41.07,74.07-21.7,74.07-21.7s99.41,40,64.16,159.29c-7.73,26.16,15.5,83.22,8.84,112.67C2891.71,735.45,2757.15,738.2,2721.13,716.1Z"/><g class="cls-30"><path class="cls-15" d="M2899.51,600.33l-51.67-47.45s-7.72,23.42,4.25,67.27,47.42,109.28,47.42,109.28,29.71-48.61,19.66-73.84S2899.51,600.33,2899.51,600.33Z"/></g><path class="cls-15" d="M2858.18,377.86c-3.75,6.5-37.88-3.62-70.72-22.58s-56.42-39.59-52.66-46.09,33.41,3.6,66.25,22.56S2861.94,371.37,2858.18,377.86Z"/><path class="cls-1" d="M2757.45,353.68s-18.25,62.69,15.05,60.72,53.59-39.36,42.26-62.91S2766.73,312.2,2757.45,353.68Z"/><g class="cls-31"><path class="cls-11" d="M2806.42,355.14c3.8-1.51,8-3.67,9-7.63,1.18-4.55-2.5-8.92-6.4-11.55-9.65-6.51-21.9-8-33.51-7.17-8.57.59-17.35,2.46-24.73,7-6.82,4.21-13.14,11.72-13.47,20.1-.26,6.37,5.55,8.6,10.94,9.23,8.16.94,16.81-.05,24.89-1.2a147.8,147.8,0,0,0,29.73-7.46C2804.07,356.05,2805.25,355.6,2806.42,355.14Z"/></g><path class="cls-1" d="M2818,364.36s-4.59,32.23,5.59,63.55c0,0-19.55,15.41-35.79,15.13s1.15-59.1,1.15-59.1Z"/><path class="cls-11" d="M2782.36,412.72s2.31.82,14.74-9.07c0,0,1.63,14-16.15,21.29C2781,424.94,2781.7,416.42,2782.36,412.72Z"/><path class="cls-4" d="M2799.62,347.85a66.07,66.07,0,0,0,6.46,24.92c-.17-2.21.19-4.85,2.15-5.87a4.19,4.19,0,0,1,4.71,1,9.46,9.46,0,0,1,2.24,4.57,14.09,14.09,0,0,1,.23,7,7.36,7.36,0,0,1-4.39,5.17c2.35,5.7,4.6,11.58,6.95,17.28a68.18,68.18,0,0,0,18.35-40.68,44.53,44.53,0,0,0-.4-11.93,32.89,32.89,0,0,0-9-17.09,18.71,18.71,0,0,0-6.34-4.42c-5.53-2.15-12.19-.13-16.23,4.22S2799.28,341.92,2799.62,347.85Z"/><path class="cls-4" d="M2765.27,313.83a157.44,157.44,0,0,0,25.73-3.08c.48-.11.94-.2,1.4-.28,22.88-4,29.35,30.33,6.7,35.53-12.1,2.77-25.16,5.43-31.6,5.62,0,0-28.1,7.07-40.07-1.51s5.87-36,37.84-36.28"/><path class="cls-17" d="M2787.88,442.86l-13.57,10.37s-.22-16.21,1.87-23.58l4.78-2.28S2781.52,439.55,2787.88,442.86Z"/><path class="cls-17" d="M2787.88,442.86l13.89,21.19s27.18-20.86,29.56-34.78l-7.78-3.63S2803,441.08,2787.88,442.86Z"/><path class="cls-3" d="M2759.77,311.89s61.55,28.41,81.84,48c0,0,8.2-40.81-3.6-49.76s-20-8.88-20-8.88a29.25,29.25,0,0,0-16.41-10.78C2785.19,286.67,2759.77,311.89,2759.77,311.89Z"/><path class="cls-15" d="M2734.8,309.19s88.72,67.13,118.92,68.65S2767.81,294,2734.8,309.19Z"/><path class="cls-17" d="M2758,395.85s12.15,3.47,19.52-3.91c0,0-6.69,12.13-12.39,11.71S2758,395.85,2758,395.85Z"/><path class="cls-1" d="M2580.42,421.51s-6.87-32.27-8.86-34.49-17.86,9.13-16.52,20.32,10.63,34.81,10.63,34.81S2581.42,426.1,2580.42,421.51Z"/><path class="cls-1" d="M2582.57,424.93c-.37-.6,3.43-18.64,3.43-18.64s-3.59,1.57-4.65,3.28-4.81,11.22-4.81,11.22Z"/><path class="cls-1" d="M2696.76,558s-54.58,38.39-67.28,34c-28.27-9.8-66.16-158.74-66.16-158.74l17.1-11.73s57.54,91.16,61.13,107.23l17.2-13.5S2684.58,544.22,2696.76,558Z"/><g class="cls-32"><path class="cls-11" d="M2691.64,568c3.28,1.73,7.67,3.16,10.36.62,1.8-1.7,2-4.49,1.79-7-.66-9.27-4.28-18-8.33-26.42-5.15-10.62-12-21.69-23.17-25.52-8.36-2.86-28.8,0-26,12.81,1.26,5.77,5.68,11,9.26,15.52A114.74,114.74,0,0,0,2671,553.94,112.44,112.44,0,0,0,2691.64,568Z"/></g><path class="cls-3" d="M2651.17,506.83s45.08,69.24,56,69.51l52.57-25.11,5.74-113.91Z"/><path class="cls-15" d="M2715.4,572.43s8.24-54.35,14.19-72.8c0,0-28.68,70.34-28.07,73.54,0,0,3.58,3.26,5.68,3.17S2715.4,572.43,2715.4,572.43Z"/><path class="cls-7" d="M2577.36,434h0a4.73,4.73,0,0,1-5.25-4.15l-8.76-74.75a4.72,4.72,0,0,1,4.15-5.25h0a4.72,4.72,0,0,1,5.24,4.14l8.76,74.76A4.73,4.73,0,0,1,2577.36,434Z"/><path class="cls-3" d="M2873.88,464.05s44.41,61.79,67.33,112.3c0,0-55.65,28.68-73.11,28.68C2868.1,605,2841.47,485.67,2873.88,464.05Z"/><path class="cls-2" d="M2857.81,442.15c-.89,11.85-1,23.55-.75,35.21s.82,23.26,1.78,34.81,2.19,23.05,3.73,34.51c.83,5.72,1.57,11.46,2.55,17.15.47,2.86.92,5.71,1.42,8.56l.36,2.13c.12.72.27,1.33.4,2l.39,2c.15.66.33,1.32.49,2,1.27,5.31,2.91,10.71,4.76,16.08s3.82,10.78,5.88,16.16,4.28,10.76,6.43,16.15L2892,645c9.07,21.55,18.55,43,27.19,65.21q-5.62-6.95-10.76-14.22c-3.45-4.82-6.77-9.73-10-14.68q-9.72-14.89-18.37-30.47t-16-32c-2.42-5.49-4.67-11.07-6.81-16.76a180.42,180.42,0,0,1-5.42-17.7c-.18-.77-.37-1.53-.53-2.31l-.46-2.37c-.15-.78-.32-1.61-.44-2.34l-.35-2.22c-.46-3-1-5.91-1.31-8.88s-.75-5.94-1.08-8.91-.62-6-.88-8.94c-.47-6-.88-11.94-1-17.93s-.18-12,0-18a275.94,275.94,0,0,1,3.22-35.74c1-5.9,2.11-11.77,3.55-17.57A123.85,123.85,0,0,1,2857.81,442.15Z"/><path class="cls-2" d="M2752.87,442.15c.8,8.75.92,17.47.85,26.17-.06,4.35-.15,8.7-.36,13s-.42,8.69-.75,13a481.66,481.66,0,0,1-6.55,51.71,390.3,390.3,0,0,1-12.51,50.75c-1.26,4.17-2.77,8.29-4.33,12.39s-3,8.19-4.91,12.18l-2.75,6-1.4,3-.7,1.48-.8,1.45q-3.18,5.79-6.63,11.36c3.91-17.08,7.26-33.81,10.49-50.64s6.16-33.66,9.29-50.51,6.19-33.74,9.55-50.63S2748.31,459.07,2752.87,442.15Z"/><path class="cls-11" d="M2889.51,599.6s33.42,92,51.7,87.88,27.09-60.46-7.72-107.27C2933.49,580.21,2902.43,595.93,2889.51,599.6Z"/><path class="cls-1" d="M2957.26,644.64l-89.92-90.4h0s-5.09-24-6.79-24c-1.13,0-1,8.47-.71,14.16-4.66-8.49-14.24-24.54-18.87-22.35-6.25,3-8,21.16-4.43,27.74s18.76,22.5,18.76,22.5,59.45,115.91,85.91,115.24S2957.26,644.64,2957.26,644.64Z"/></svg>